<?xml version="1.0" encoding="utf-8"?>
<!-- Generator: Adobe Illustrator 22.1.0, SVG Export Plug-In . SVG Version: 6.00 Build 0)  -->
<svg version="1.1" baseProfile="tiny" xmlns="http://www.w3.org/2000/svg" xmlns:xlink="http://www.w3.org/1999/xlink" x="0px"
	 y="0px" viewBox="0 0 640 320" xml:space="preserve">
<g id="Слой_2">
	<g id="XMLID_4_">
		<g>
			<rect x="75" y="43" fill="#AFAFAF" width="498" height="221"/>
		</g>
		<g>
			<rect x="75" y="43" fill="none" stroke="#000000" stroke-width="5" stroke-miterlimit="10" width="498" height="221"/>
		</g>
	</g>
</g>
<g id="Слой_3">
	<g id="XMLID_2_">
		<g>
			<circle cx="290.3" cy="89.8" r="33.8"/>
		</g>
		<g>
			<circle fill="none" stroke="#000000" stroke-width="5" stroke-miterlimit="10" cx="290.3" cy="89.8" r="33.8"/>
		</g>
	</g>
	<line fill="none" stroke="#000000" stroke-width="5" stroke-miterlimit="10" x1="108.5" y1="83.5" x2="284.5" y2="83.5"/>
	<g id="XMLID_1_">
		<g>
			<circle cx="114.8" cy="83.3" r="34.3"/>
		</g>
		<g>
			<circle fill="none" stroke="#000000" stroke-width="5" stroke-miterlimit="10" cx="114.8" cy="83.3" r="34.3"/>
		</g>
	</g>
</g>
<g id="Слой_1">
	<g>
		<g id="XMLID_3_">
			<g>
				<polygon fill="#FFFFFF" points="508.4,211.2 474.9,253.5 416.3,197.3 387.5,257.2 290.3,88 486.9,131.8 435.4,173.1 				"/>
			</g>
			<g>
				<line fill="none" stroke="#000000" stroke-width="5" stroke-miterlimit="10" x1="290.3" y1="88" x2="387.5" y2="257.2"/>
				<line fill="none" stroke="#000000" stroke-width="5" stroke-miterlimit="10" x1="290.3" y1="88" x2="486.9" y2="131.8"/>
				<line fill="none" stroke="#000000" stroke-width="5" stroke-miterlimit="10" x1="387.5" y1="257.2" x2="416.3" y2="197.3"/>
				<line fill="none" stroke="#000000" stroke-width="5" stroke-miterlimit="10" x1="486.9" y1="131.8" x2="435.4" y2="173.1"/>
				<line fill="none" stroke="#000000" stroke-width="5" stroke-miterlimit="10" x1="435.4" y1="173.1" x2="508.4" y2="211.2"/>
				<line fill="none" stroke="#000000" stroke-width="5" stroke-miterlimit="10" x1="416.3" y1="197.3" x2="474.9" y2="253.5"/>
				<line fill="none" stroke="#000000" stroke-width="5" stroke-miterlimit="10" x1="508.4" y1="211.2" x2="474.9" y2="253.5"/>
			</g>
		</g>
	</g>
</g>
</svg>
